# xmcd
#
# Track frame offsets:
#	150
#	10997
#	21910
#	35399
#	50793
#	64303
#	75604
#	93294
#	109531
#	122590
#	136455
#	160312
#	171664
#	185045
#	196820
#	209548
#	225851
#	236230
#	249868
#	260678
#	275510
#	285443
#	299061
#	309631
#	323932
#
# Disc length: 4486 seconds
# Revision: 0
# Processed by: cddbd v1.5.2PL0 Copyright (c) Steve Scherf et al.
# Submitted via: dBpowerAMP V12.0
#
DISCID=76118419
DTITLE=Jimmy Witherspoon - Jimmy Witherspoon Ain't Nobody's Business
DYEAR=1900
DGENRE=Blues
TTITLE0=Ain't Nobody's Business
TTITLE1=Spoon's Blues
TTITLE2=Then The Lights Go Out
TTITLE3=It Ain't What You're Thinkin'
TTITLE4=Confessin' The Blues
TTITLE5=In The Dark
TTITLE6=I'd Rather Dring Muddy Water
TTITLE7=I'm Gonna Move To The Outskirts
TTITLE8=Key To The Highway
TTITLE9=Trouble In Mind (with Wilbur De Paris)
TTITLE10=Midnight Blues (Red Shirt)
TTITLE11=Nobody Knows You When You're
TTITLE12=Times Are Changing
TTITLE13=Tanya
TTITLE14=S.K. Blues
TTITLE15=When I've Been Drinkin'
TTITLE16=Lovey Dovey
TTITLE17=All That's Good
TTITLE18=Warm Your Heart
TTITLE19=Wee Baby Blues
TTITLE20=Ain't Mad At You, Pretty Baby
TTITLE21=How Long Blues (Wilbur De Paris)
TTITLE22=Hey, Mrs. Jones
TTITLE23=Don't Know
TTITLE24=f You Live The Life, You Pay
EXTD=
EXTT0=
EXTT1=
EXTT2=
EXTT3=
EXTT4=
EXTT5=
EXTT6=
EXTT7=
EXTT8=
EXTT9=
EXTT10=
EXTT11=
EXTT12=
EXTT13=
EXTT14=
EXTT15=
EXTT16=
EXTT17=
EXTT18=
EXTT19=
EXTT20=
EXTT21=
EXTT22=
EXTT23=
EXTT24=
PLAYORDER=
